<mxfile host="app.diagrams.net" agent="Mozilla/5.0 (Windows NT 10.0; Win64; x64) AppleWebKit/537.36 (KHTML, like Gecko) Chrome/134.0.0.0 Safari/537.36" version="26.1.2">
  <diagram name="Page-1" id="YMLba09TKU1qOcHjSD6g">
    <mxGraphModel dx="1593" dy="821" grid="1" gridSize="10" guides="1" tooltips="1" connect="1" arrows="1" fold="1" page="1" pageScale="1" pageWidth="1100" pageHeight="850" math="0" shadow="0">
      <root>
        <mxCell id="0" />
        <mxCell id="1" parent="0" />
        <mxCell id="2jE1Kdb_OJaYWSuVrYXw-3" value="" style="edgeStyle=orthogonalEdgeStyle;rounded=0;orthogonalLoop=1;jettySize=auto;html=1;" edge="1" parent="1" source="2jE1Kdb_OJaYWSuVrYXw-1" target="2jE1Kdb_OJaYWSuVrYXw-2">
          <mxGeometry relative="1" as="geometry" />
        </mxCell>
        <mxCell id="2jE1Kdb_OJaYWSuVrYXw-1" value="Begin" style="rounded=0;whiteSpace=wrap;html=1;" vertex="1" parent="1">
          <mxGeometry x="460" y="10" width="120" height="60" as="geometry" />
        </mxCell>
        <mxCell id="2jE1Kdb_OJaYWSuVrYXw-2" value="Khởi tạo giá trị ban đầu" style="rounded=0;whiteSpace=wrap;html=1;" vertex="1" parent="1">
          <mxGeometry x="460" y="100" width="120" height="60" as="geometry" />
        </mxCell>
        <mxCell id="2jE1Kdb_OJaYWSuVrYXw-4" value="quét khí gas" style="rounded=0;whiteSpace=wrap;html=1;" vertex="1" parent="1">
          <mxGeometry x="460" y="200" width="120" height="60" as="geometry" />
        </mxCell>
        <mxCell id="2jE1Kdb_OJaYWSuVrYXw-17" value="" style="edgeStyle=orthogonalEdgeStyle;rounded=0;orthogonalLoop=1;jettySize=auto;html=1;" edge="1" parent="1" source="2jE1Kdb_OJaYWSuVrYXw-8" target="2jE1Kdb_OJaYWSuVrYXw-16">
          <mxGeometry relative="1" as="geometry" />
        </mxCell>
        <mxCell id="2jE1Kdb_OJaYWSuVrYXw-8" value="Di chuyển đến vị trí rò rỉ" style="whiteSpace=wrap;html=1;rounded=0;" vertex="1" parent="1">
          <mxGeometry x="460" y="320" width="120" height="60" as="geometry" />
        </mxCell>
        <mxCell id="2jE1Kdb_OJaYWSuVrYXw-10" value="Gửi tọa độ lên CSDL&amp;nbsp;" style="whiteSpace=wrap;html=1;rounded=0;" vertex="1" parent="1">
          <mxGeometry x="200" y="100" width="120" height="60" as="geometry" />
        </mxCell>
        <mxCell id="2jE1Kdb_OJaYWSuVrYXw-12" value="ESP" style="text;html=1;align=center;verticalAlign=middle;whiteSpace=wrap;rounded=0;" vertex="1" parent="1">
          <mxGeometry x="230" y="70" width="60" height="30" as="geometry" />
        </mxCell>
        <mxCell id="2jE1Kdb_OJaYWSuVrYXw-13" value="ARDUINO" style="text;html=1;align=center;verticalAlign=middle;whiteSpace=wrap;rounded=0;" vertex="1" parent="1">
          <mxGeometry x="590" y="215" width="60" height="30" as="geometry" />
        </mxCell>
        <mxCell id="2jE1Kdb_OJaYWSuVrYXw-19" value="" style="edgeStyle=orthogonalEdgeStyle;rounded=0;orthogonalLoop=1;jettySize=auto;html=1;" edge="1" parent="1" source="2jE1Kdb_OJaYWSuVrYXw-16" target="2jE1Kdb_OJaYWSuVrYXw-18">
          <mxGeometry relative="1" as="geometry" />
        </mxCell>
        <mxCell id="2jE1Kdb_OJaYWSuVrYXw-16" value="Phát hiện Vát Cản" style="rhombus;whiteSpace=wrap;html=1;rounded=0;" vertex="1" parent="1">
          <mxGeometry x="465" y="410" width="110" height="100" as="geometry" />
        </mxCell>
        <mxCell id="2jE1Kdb_OJaYWSuVrYXw-22" value="" style="edgeStyle=orthogonalEdgeStyle;rounded=0;orthogonalLoop=1;jettySize=auto;html=1;" edge="1" parent="1" source="2jE1Kdb_OJaYWSuVrYXw-18">
          <mxGeometry relative="1" as="geometry">
            <mxPoint x="520" y="660" as="targetPoint" />
          </mxGeometry>
        </mxCell>
        <mxCell id="2jE1Kdb_OJaYWSuVrYXw-18" value="Tránh Vật Cản" style="whiteSpace=wrap;html=1;rounded=0;" vertex="1" parent="1">
          <mxGeometry x="460" y="560" width="120" height="60" as="geometry" />
        </mxCell>
        <mxCell id="2jE1Kdb_OJaYWSuVrYXw-20" value="Đ" style="text;html=1;align=center;verticalAlign=middle;whiteSpace=wrap;rounded=0;" vertex="1" parent="1">
          <mxGeometry x="480" y="530" width="60" height="30" as="geometry" />
        </mxCell>
        <mxCell id="2jE1Kdb_OJaYWSuVrYXw-23" value="" style="endArrow=classic;html=1;rounded=0;exitX=1;exitY=0.5;exitDx=0;exitDy=0;" edge="1" parent="1" source="2jE1Kdb_OJaYWSuVrYXw-16">
          <mxGeometry width="50" height="50" relative="1" as="geometry">
            <mxPoint x="530" y="550" as="sourcePoint" />
            <mxPoint x="520" y="640" as="targetPoint" />
            <Array as="points">
              <mxPoint x="600" y="460" />
              <mxPoint x="600" y="640" />
            </Array>
          </mxGeometry>
        </mxCell>
        <mxCell id="2jE1Kdb_OJaYWSuVrYXw-24" value="S" style="text;html=1;align=center;verticalAlign=middle;whiteSpace=wrap;rounded=0;" vertex="1" parent="1">
          <mxGeometry x="560" y="510" width="60" height="30" as="geometry" />
        </mxCell>
        <mxCell id="2jE1Kdb_OJaYWSuVrYXw-25" value="" style="endArrow=classic;html=1;rounded=0;exitX=0.5;exitY=1;exitDx=0;exitDy=0;entryX=0.5;entryY=0;entryDx=0;entryDy=0;" edge="1" parent="1" source="2jE1Kdb_OJaYWSuVrYXw-2" target="2jE1Kdb_OJaYWSuVrYXw-4">
          <mxGeometry width="50" height="50" relative="1" as="geometry">
            <mxPoint x="530" y="270" as="sourcePoint" />
            <mxPoint x="580" y="220" as="targetPoint" />
          </mxGeometry>
        </mxCell>
        <mxCell id="2jE1Kdb_OJaYWSuVrYXw-28" value="" style="edgeStyle=orthogonalEdgeStyle;rounded=0;orthogonalLoop=1;jettySize=auto;html=1;" edge="1" parent="1" source="2jE1Kdb_OJaYWSuVrYXw-26" target="2jE1Kdb_OJaYWSuVrYXw-27">
          <mxGeometry relative="1" as="geometry" />
        </mxCell>
        <mxCell id="2jE1Kdb_OJaYWSuVrYXw-26" value="Đích" style="rhombus;whiteSpace=wrap;html=1;" vertex="1" parent="1">
          <mxGeometry x="465" y="660" width="110" height="130" as="geometry" />
        </mxCell>
        <mxCell id="2jE1Kdb_OJaYWSuVrYXw-30" value="" style="edgeStyle=orthogonalEdgeStyle;rounded=0;orthogonalLoop=1;jettySize=auto;html=1;" edge="1" parent="1" source="2jE1Kdb_OJaYWSuVrYXw-27" target="2jE1Kdb_OJaYWSuVrYXw-29">
          <mxGeometry relative="1" as="geometry" />
        </mxCell>
        <mxCell id="2jE1Kdb_OJaYWSuVrYXw-27" value="Gửi tạo độ lên app&lt;div&gt;Cảnh báo&lt;/div&gt;" style="whiteSpace=wrap;html=1;" vertex="1" parent="1">
          <mxGeometry x="650" y="695" width="120" height="60" as="geometry" />
        </mxCell>
        <mxCell id="2jE1Kdb_OJaYWSuVrYXw-29" value="END" style="ellipse;whiteSpace=wrap;html=1;" vertex="1" parent="1">
          <mxGeometry x="870" y="685" width="80" height="80" as="geometry" />
        </mxCell>
        <mxCell id="2jE1Kdb_OJaYWSuVrYXw-31" value="" style="endArrow=classic;html=1;rounded=0;exitX=0;exitY=0.5;exitDx=0;exitDy=0;entryX=1;entryY=0.5;entryDx=0;entryDy=0;" edge="1" parent="1" source="2jE1Kdb_OJaYWSuVrYXw-2" target="2jE1Kdb_OJaYWSuVrYXw-10">
          <mxGeometry width="50" height="50" relative="1" as="geometry">
            <mxPoint x="530" y="370" as="sourcePoint" />
            <mxPoint x="580" y="320" as="targetPoint" />
            <Array as="points" />
          </mxGeometry>
        </mxCell>
        <mxCell id="2jE1Kdb_OJaYWSuVrYXw-33" value="" style="endArrow=classic;html=1;rounded=0;exitX=0.5;exitY=1;exitDx=0;exitDy=0;entryX=0.5;entryY=0;entryDx=0;entryDy=0;" edge="1" parent="1" source="2jE1Kdb_OJaYWSuVrYXw-4" target="2jE1Kdb_OJaYWSuVrYXw-8">
          <mxGeometry width="50" height="50" relative="1" as="geometry">
            <mxPoint x="530" y="370" as="sourcePoint" />
            <mxPoint x="580" y="320" as="targetPoint" />
          </mxGeometry>
        </mxCell>
        <mxCell id="2jE1Kdb_OJaYWSuVrYXw-34" value="Đ" style="text;html=1;align=center;verticalAlign=middle;whiteSpace=wrap;rounded=0;" vertex="1" parent="1">
          <mxGeometry x="575" y="685" width="60" height="30" as="geometry" />
        </mxCell>
        <mxCell id="2jE1Kdb_OJaYWSuVrYXw-35" value="S" style="text;html=1;align=center;verticalAlign=middle;whiteSpace=wrap;rounded=0;" vertex="1" parent="1">
          <mxGeometry x="360" y="695" width="60" height="30" as="geometry" />
        </mxCell>
        <mxCell id="2jE1Kdb_OJaYWSuVrYXw-36" value="" style="endArrow=classic;html=1;rounded=0;exitX=0;exitY=0.5;exitDx=0;exitDy=0;entryX=-0.007;entryY=0.602;entryDx=0;entryDy=0;entryPerimeter=0;" edge="1" parent="1" source="2jE1Kdb_OJaYWSuVrYXw-26" target="2jE1Kdb_OJaYWSuVrYXw-4">
          <mxGeometry width="50" height="50" relative="1" as="geometry">
            <mxPoint x="550" y="650" as="sourcePoint" />
            <mxPoint x="440" y="390" as="targetPoint" />
            <Array as="points">
              <mxPoint x="300" y="725" />
              <mxPoint x="300" y="236" />
            </Array>
          </mxGeometry>
        </mxCell>
        <mxCell id="2jE1Kdb_OJaYWSuVrYXw-37" value="Quét khí gas" style="text;html=1;align=center;verticalAlign=middle;whiteSpace=wrap;rounded=0;fontStyle=1" vertex="1" parent="1">
          <mxGeometry x="880" y="115" width="60" height="30" as="geometry" />
        </mxCell>
        <mxCell id="2jE1Kdb_OJaYWSuVrYXw-38" value="Phát hiện vật cản + Tránh vật cản" style="text;html=1;align=center;verticalAlign=middle;whiteSpace=wrap;rounded=0;fontStyle=1" vertex="1" parent="1">
          <mxGeometry x="880" y="185" width="60" height="30" as="geometry" />
        </mxCell>
        <mxCell id="2jE1Kdb_OJaYWSuVrYXw-39" value="Gửi tọa độ lên csdl" style="text;html=1;align=center;verticalAlign=middle;whiteSpace=wrap;rounded=0;" vertex="1" parent="1">
          <mxGeometry x="880" y="260" width="60" height="30" as="geometry" />
        </mxCell>
      </root>
    </mxGraphModel>
  </diagram>
</mxfile>
